<?xml version="1.0" encoding="UTF-8"?>
<svg xmlns="http://www.w3.org/2000/svg" width="1200" height="630" viewBox="0 0 1200 630" role="img" aria-label="Voyfai — independent freight forwarders, stronger together">
  <defs>
    <radialGradient id="hazeBright" cx="90%" cy="10%" r="62%" fx="96%" fy="2%">
      <stop offset="0%" stop-color="#03A696" stop-opacity="0.62"/>
      <stop offset="22%" stop-color="#03A696" stop-opacity="0.34"/>
      <stop offset="55%" stop-color="#03A696" stop-opacity="0.07"/>
      <stop offset="100%" stop-color="#03A696" stop-opacity="0"/>
    </radialGradient>
    <radialGradient id="hazeDeep" cx="8%" cy="92%" r="60%" fx="2%" fy="98%">
      <stop offset="0%" stop-color="#028A7D" stop-opacity="0.55"/>
      <stop offset="26%" stop-color="#028A7D" stop-opacity="0.26"/>
      <stop offset="60%" stop-color="#028A7D" stop-opacity="0.05"/>
      <stop offset="100%" stop-color="#028A7D" stop-opacity="0"/>
    </radialGradient>
    <radialGradient id="hazeTopLeft" cx="10%" cy="10%" r="55%" fx="5%" fy="5%">
      <stop offset="0%" stop-color="#025951" stop-opacity="0.45"/>
      <stop offset="30%" stop-color="#025951" stop-opacity="0.15"/>
      <stop offset="100%" stop-color="#025951" stop-opacity="0"/>
    </radialGradient>
    <radialGradient id="hazeBottomRight" cx="90%" cy="90%" r="55%" fx="95%" fy="95%">
      <stop offset="0%" stop-color="#03A696" stop-opacity="0.4"/>
      <stop offset="30%" stop-color="#03A696" stop-opacity="0.15"/>
      <stop offset="100%" stop-color="#03A696" stop-opacity="0"/>
    </radialGradient>
  </defs>
  <rect width="1200" height="630" fill="#000000"/>
  <rect x="24" y="24" width="1152" height="582" rx="40" ry="40" fill="#0A0A0A"/>
  <rect x="24" y="24" width="1152" height="582" rx="40" ry="40" fill="url(#hazeTopLeft)"/>
  <rect x="24" y="24" width="1152" height="582" rx="40" ry="40" fill="url(#hazeDeep)"/>
  <rect x="24" y="24" width="1152" height="582" rx="40" ry="40" fill="url(#hazeBottomRight)"/>
  <rect x="24" y="24" width="1152" height="582" rx="40" ry="40" fill="url(#hazeBright)"/>
  <rect x="24" y="24" width="1152" height="582" rx="40" ry="40" fill="none" stroke="rgba(255,255,255,0.08)" stroke-width="1"/>
  <g transform="translate(80 80) scale(0.4507042253521127)">
    
<path d="M97.789 6.08211L64.3604 71.7985L29.9903 6.08211L0 6.06843L49.1424 95.3329C51.1163 98.9191 54.8776 101.146 58.9572 101.146H69.9136C74.0615 101.146 77.8683 98.8507 79.8149 95.1777L127.038 6.06386L97.789 6.07755V6.08211Z" fill="white"/>
<path d="M146.836 32.5823C124.059 32.5823 103.033 42.8575 103.033 67.7378C103.033 92.6182 124.059 102.355 146.836 102.355C169.613 102.355 190.239 92.349 190.239 67.7378C190.239 43.1267 169.617 32.5823 146.836 32.5823ZM146.836 83.0183C134.301 83.0183 126.888 75.8503 126.888 67.6055C126.888 58.6809 134.301 51.5129 146.836 51.5129C159.37 51.5129 166.784 58.8178 166.784 67.6055C166.784 76.3933 159.37 83.0183 146.836 83.0183Z" fill="white"/>
<path d="M325.036 34.2065H305.492V28.932C305.492 22.9823 308.999 19.7382 315.062 19.7382C316.949 19.7382 320.724 19.1952 325.977 21.6317L328.538 2.97487C322.339 0.944477 315.867 0 311.555 0C305.219 0 299.425 1.21824 293.494 4.86839C286.349 9.3307 281.496 18.1184 281.496 25.8248V34.2065H249.15C243.083 46.512 237.02 59.2237 231.09 71.6616L207.772 34.2065H181.17L219.501 95.7298L201.636 130.967L221.853 142L266.961 50.4314H281.506V100.867H305.497V50.4314H325.04V34.2019L325.036 34.2065Z" fill="white"/>
<path d="M410.354 84.6423C403.613 86.3989 401.594 83.967 401.594 78.6925V57.7361C401.594 48.9484 398.897 43.4047 389.191 37.9933C380.7 33.3941 368.57 32.7189 361.289 32.7189C350.91 32.7189 335.273 36.912 330.02 40.0192L333.122 53.6753C341.345 50.8373 352.802 47.4564 360.484 47.4564C366.01 47.4564 370.862 48.2685 374.769 50.2989C377.33 51.5126 377.598 55.1673 377.598 57.4669C377.237 57.4669 376.968 57.4213 376.789 57.33C372.477 56.1118 364.927 55.4365 359.806 55.4365C341.477 55.4365 322.202 59.8988 322.202 78.8294C322.202 96.2726 342.419 101.953 359.538 101.953C367.356 101.953 376.52 100.466 382.992 95.5973C387.709 100.329 395.527 101.278 401.726 101.278C406.442 101.278 410.349 100.872 410.349 100.872H434.609V34.2063H410.349V84.6423H410.354ZM360.215 86.262C350.51 86.262 346.062 83.1503 346.062 78.2864C346.062 73.6872 350.778 69.7679 361.698 69.7679C366.687 69.7679 372.75 70.7169 377.603 71.2553C377.603 84.4598 368.438 86.262 360.215 86.262Z" fill="white"/>
<path d="M422.734 29.5936C429.069 29.5936 435 24.7252 435 17.831C435 10.9368 429.069 5.93149 422.734 5.93149C416.398 5.93149 410.467 11.0691 410.467 17.831C410.467 24.5929 416.398 29.5936 422.734 29.5936Z" fill="white"/>

  </g>
  <path d="M95.51 447.20L84.31 447.20L84.31 407.94L95.51 407.94L95.51 447.20Z M134.66 447.20L124.63 447.20L124.63 430.06Q124.63 429.39 124.49 428.72Q124.35 428.05 123.90 427.54Q123.46 427.04 122.64 426.70Q121.83 426.37 120.49 426.37L120.49 426.37Q118.53 426.37 116.43 427.40Q114.33 428.44 112.65 429.67L112.65 429.67L112.65 447.20L102.57 447.20L102.57 419.59L112.65 419.59L112.65 422.22Q114.22 420.94 116.40 419.98Q118.58 419.03 121.27 419.03L121.27 419.03Q124.24 419.03 126.70 419.79Q129.17 420.54 130.93 421.89Q132.70 423.23 133.68 425.11Q134.66 426.98 134.66 429.17L134.66 429.17L134.66 447.20Z M173.69 447.20L163.72 447.20L163.72 444.90Q162.26 446.02 160.19 446.81Q158.12 447.59 155.99 447.59L155.99 447.59Q152.74 447.59 149.61 446.70Q146.47 445.80 143.98 444.04Q141.49 442.27 139.95 439.61Q138.41 436.95 138.41 433.48L138.41 433.48Q138.41 429.56 139.81 426.82Q141.21 424.07 143.62 422.36Q146.02 420.66 149.13 419.87Q152.24 419.09 155.71 419.09L155.71 419.09Q157.67 419.09 159.72 419.62Q161.76 420.15 163.55 421.22L163.55 421.22L163.55 405.65L173.69 405.65L173.69 447.20ZM163.55 437.18L163.55 429.11Q162.26 428.05 160.42 427.38Q158.57 426.70 156.61 426.70L156.61 426.70Q154.87 426.70 153.39 427.21Q151.90 427.71 150.81 428.58Q149.72 429.45 149.10 430.62Q148.49 431.80 148.49 433.14L148.49 433.14Q148.49 434.49 149.10 435.66Q149.72 436.84 150.81 437.74Q151.90 438.63 153.39 439.16Q154.87 439.70 156.61 439.70L156.61 439.70Q158.62 439.70 160.44 439.00Q162.26 438.30 163.55 437.18L163.55 437.18Z M212.94 435.61L188.53 435.61Q189.14 437.62 191.30 438.97Q193.46 440.31 196.48 440.31L196.48 440.31Q199.62 440.31 202.39 439.89Q205.16 439.47 207.68 438.13L207.68 438.13L210.70 443.90Q208.30 445.69 204.43 446.72Q200.57 447.76 196.14 447.76L196.14 447.76Q192.45 447.76 189.17 446.92Q185.90 446.08 183.40 444.32Q180.91 442.55 179.48 439.86Q178.06 437.18 178.06 433.48L178.06 433.48Q178.06 429.84 179.40 427.12Q180.74 424.41 183.15 422.59Q185.56 420.77 188.81 419.87Q192.06 418.98 195.86 418.98L195.86 418.98Q204.04 418.98 208.55 423.15Q213.06 427.32 212.94 435.61L212.94 435.61ZM189.09 430.01L202.86 430.01Q202.75 429.39 202.44 428.64Q202.14 427.88 201.35 427.24Q200.57 426.59 199.25 426.14Q197.94 425.70 195.86 425.70L195.86 425.70Q193.40 425.70 191.66 426.87Q189.93 428.05 189.09 430.01L189.09 430.01Z M252.20 433.14L252.20 433.14Q252.20 436.90 250.88 439.64Q249.57 442.38 247.30 444.18Q245.03 445.97 241.98 446.84Q238.93 447.70 235.46 447.70L235.46 447.70Q233.50 447.70 231.17 447.09Q228.85 446.47 227.00 445.46L227.00 445.46L227.00 457.78L216.92 457.78L216.92 419.59L227.00 419.59L227.00 421.33Q227.73 420.82 228.68 420.43Q229.63 420.04 230.70 419.73Q231.76 419.42 232.82 419.26Q233.89 419.09 234.84 419.09L234.84 419.09Q238.26 419.09 241.39 420.04Q244.53 420.99 246.94 422.78Q249.34 424.58 250.77 427.18Q252.20 429.78 252.20 433.14ZM242.12 433.54L242.12 433.54Q242.12 432.02 241.50 430.82Q240.89 429.62 239.80 428.75Q238.70 427.88 237.19 427.43Q235.68 426.98 233.94 426.98L233.94 426.98Q231.98 426.98 230.14 427.71Q228.29 428.44 227.00 429.56L227.00 429.56L227.00 437.40Q227.67 437.90 228.54 438.35Q229.41 438.80 230.42 439.14Q231.42 439.47 232.49 439.64Q233.55 439.81 234.50 439.81L234.50 439.81Q238.03 439.81 240.08 438.10Q242.12 436.39 242.12 433.54Z M289.78 435.61L265.36 435.61Q265.98 437.62 268.13 438.97Q270.29 440.31 273.31 440.31L273.31 440.31Q276.45 440.31 279.22 439.89Q281.99 439.47 284.51 438.13L284.51 438.13L287.54 443.90Q285.13 445.69 281.26 446.72Q277.40 447.76 272.98 447.76L272.98 447.76Q269.28 447.76 266.00 446.92Q262.73 446.08 260.24 444.32Q257.74 442.55 256.32 439.86Q254.89 437.18 254.89 433.48L254.89 433.48Q254.89 429.84 256.23 427.12Q257.58 424.41 259.98 422.59Q262.39 420.77 265.64 419.87Q268.89 418.98 272.70 418.98L272.70 418.98Q280.87 418.98 285.38 423.15Q289.89 427.32 289.78 435.61L289.78 435.61ZM265.92 430.01L279.70 430.01Q279.58 429.39 279.28 428.64Q278.97 427.88 278.18 427.24Q277.40 426.59 276.08 426.14Q274.77 425.70 272.70 425.70L272.70 425.70Q270.23 425.70 268.50 426.87Q266.76 428.05 265.92 430.01L265.92 430.01Z M325.84 447.20L315.82 447.20L315.82 430.06Q315.82 429.39 315.68 428.72Q315.54 428.05 315.09 427.54Q314.64 427.04 313.83 426.70Q313.02 426.37 311.67 426.37L311.67 426.37Q309.71 426.37 307.61 427.40Q305.51 428.44 303.83 429.67L303.83 429.67L303.83 447.20L293.75 447.20L293.75 419.59L303.83 419.59L303.83 422.22Q305.40 420.94 307.58 419.98Q309.77 419.03 312.46 419.03L312.46 419.03Q315.42 419.03 317.89 419.79Q320.35 420.54 322.12 421.89Q323.88 423.23 324.86 425.11Q325.84 426.98 325.84 429.17L325.84 429.17L325.84 447.20Z M364.87 447.20L354.90 447.20L354.90 444.90Q353.45 446.02 351.38 446.81Q349.30 447.59 347.18 447.59L347.18 447.59Q343.93 447.59 340.79 446.70Q337.66 445.80 335.16 444.04Q332.67 442.27 331.13 439.61Q329.59 436.95 329.59 433.48L329.59 433.48Q329.59 429.56 330.99 426.82Q332.39 424.07 334.80 422.36Q337.21 420.66 340.32 419.87Q343.42 419.09 346.90 419.09L346.90 419.09Q348.86 419.09 350.90 419.62Q352.94 420.15 354.74 421.22L354.74 421.22L354.74 405.65L364.87 405.65L364.87 447.20ZM354.74 437.18L354.74 429.11Q353.45 428.05 351.60 427.38Q349.75 426.70 347.79 426.70L347.79 426.70Q346.06 426.70 344.57 427.21Q343.09 427.71 342.00 428.58Q340.90 429.45 340.29 430.62Q339.67 431.80 339.67 433.14L339.67 433.14Q339.67 434.49 340.29 435.66Q340.90 436.84 342.00 437.74Q343.09 438.63 344.57 439.16Q346.06 439.70 347.79 439.70L347.79 439.70Q349.81 439.70 351.63 439.00Q353.45 438.30 354.74 437.18L354.74 437.18Z M404.13 435.61L379.71 435.61Q380.33 437.62 382.48 438.97Q384.64 440.31 387.66 440.31L387.66 440.31Q390.80 440.31 393.57 439.89Q396.34 439.47 398.86 438.13L398.86 438.13L401.89 443.90Q399.48 445.69 395.62 446.72Q391.75 447.76 387.33 447.76L387.33 447.76Q383.63 447.76 380.36 446.92Q377.08 446.08 374.59 444.32Q372.10 442.55 370.67 439.86Q369.24 437.18 369.24 433.48L369.24 433.48Q369.24 429.84 370.58 427.12Q371.93 424.41 374.34 422.59Q376.74 420.77 379.99 419.87Q383.24 418.98 387.05 418.98L387.05 418.98Q395.22 418.98 399.73 423.15Q404.24 427.32 404.13 435.61L404.13 435.61ZM380.27 430.01L394.05 430.01Q393.94 429.39 393.63 428.64Q393.32 427.88 392.54 427.24Q391.75 426.59 390.44 426.14Q389.12 425.70 387.05 425.70L387.05 425.70Q384.58 425.70 382.85 426.87Q381.11 428.05 380.27 430.01L380.27 430.01Z M440.19 447.20L430.17 447.20L430.17 430.06Q430.17 429.39 430.03 428.72Q429.89 428.05 429.44 427.54Q428.99 427.04 428.18 426.70Q427.37 426.37 426.02 426.37L426.02 426.37Q424.06 426.37 421.96 427.40Q419.86 428.44 418.18 429.67L418.18 429.67L418.18 447.20L408.10 447.20L408.10 419.59L418.18 419.59L418.18 422.22Q419.75 420.94 421.94 419.98Q424.12 419.03 426.81 419.03L426.81 419.03Q429.78 419.03 432.24 419.79Q434.70 420.54 436.47 421.89Q438.23 423.23 439.21 425.11Q440.19 426.98 440.19 429.17L440.19 429.17L440.19 447.20Z M471.83 442.50L471.83 442.50Q470.82 443.50 469.42 444.37Q468.02 445.24 466.57 445.88Q465.11 446.53 463.63 446.86Q462.14 447.20 460.97 447.20L460.97 447.20Q459.06 447.20 457.19 446.75Q455.31 446.30 453.46 445.18L453.46 445.18Q452.40 444.51 451.48 443.53Q450.55 442.55 449.88 441.38Q449.21 440.20 448.84 438.97Q448.48 437.74 448.48 436.56L448.48 436.56L448.48 426.31L443.78 426.31L443.78 419.59L448.48 419.59L448.48 414.38L458.50 410.86L458.50 419.59L469.82 419.59L469.82 426.31L458.50 426.31L458.50 435.27Q458.50 436.34 458.90 437.12Q459.29 437.90 459.90 438.35L459.90 438.35Q460.63 438.91 462.48 438.91L462.48 438.91Q462.76 438.91 463.49 438.77Q464.22 438.63 465.17 438.30Q466.12 437.96 467.16 437.43Q468.19 436.90 469.09 436.11L469.09 436.11L471.83 442.50Z  M519.32 406.66L518.26 414.38Q516.63 413.60 515.48 413.60Q514.34 413.60 513.72 413.60L513.72 413.60Q511.82 413.60 510.78 414.58Q509.74 415.56 509.74 417.41L509.74 417.41L509.74 419.59L517.86 419.59L517.86 426.31L509.74 426.31L509.74 447.20L499.78 447.20L499.78 426.31L495.63 426.31L495.63 419.59L499.78 419.59L499.78 416.12Q499.78 413.71 501.15 411.28Q502.52 408.84 504.76 407.44L504.76 407.44Q506.61 406.32 508.46 405.87Q510.30 405.42 512.26 405.42L512.26 405.42Q513.61 405.42 515.48 405.73Q517.36 406.04 519.32 406.66L519.32 406.66Z M544.30 419.65L544.02 428.50L543.18 428.50Q542.73 427.88 541.47 427.40Q540.21 426.93 539.09 426.93L539.09 426.93Q538.02 426.93 536.96 427.32Q535.90 427.71 534.97 428.33Q534.05 428.94 533.24 429.76Q532.42 430.57 531.86 431.41L531.86 431.41L531.86 447.20L521.84 447.20L521.84 419.59L531.86 419.59L531.86 422.78Q532.48 422.22 533.32 421.55Q534.16 420.88 535.20 420.32Q536.23 419.76 537.41 419.40Q538.58 419.03 539.87 419.03L539.87 419.03Q541.22 419.03 542.39 419.20Q543.57 419.37 544.30 419.65L544.30 419.65Z M582.88 435.61L558.46 435.61Q559.08 437.62 561.24 438.97Q563.39 440.31 566.42 440.31L566.42 440.31Q569.55 440.31 572.32 439.89Q575.10 439.47 577.62 438.13L577.62 438.13L580.64 443.90Q578.23 445.69 574.37 446.72Q570.50 447.76 566.08 447.76L566.08 447.76Q562.38 447.76 559.11 446.92Q555.83 446.08 553.34 444.32Q550.85 442.55 549.42 439.86Q547.99 437.18 547.99 433.48L547.99 433.48Q547.99 429.84 549.34 427.12Q550.68 424.41 553.09 422.59Q555.50 420.77 558.74 419.87Q561.99 418.98 565.80 418.98L565.80 418.98Q573.98 418.98 578.48 423.15Q582.99 427.32 582.88 435.61L582.88 435.61ZM559.02 430.01L572.80 430.01Q572.69 429.39 572.38 428.64Q572.07 427.88 571.29 427.24Q570.50 426.59 569.19 426.14Q567.87 425.70 565.80 425.70L565.80 425.70Q563.34 425.70 561.60 426.87Q559.86 428.05 559.02 430.01L559.02 430.01Z M596.38 411.53L596.38 411.53Q596.38 412.59 595.96 413.49Q595.54 414.38 594.81 415.03Q594.08 415.67 593.18 416.04Q592.29 416.40 591.28 416.40L591.28 416.40Q590.27 416.40 589.38 416.04Q588.48 415.67 587.75 415.03Q587.02 414.38 586.60 413.49Q586.18 412.59 586.18 411.53L586.18 411.53Q586.18 410.46 586.60 409.57Q587.02 408.67 587.72 408Q588.42 407.33 589.35 406.96Q590.27 406.60 591.28 406.60L591.28 406.60Q592.29 406.60 593.18 406.96Q594.08 407.33 594.81 408Q595.54 408.67 595.96 409.57Q596.38 410.46 596.38 411.53ZM596.21 447.20L586.13 447.20L586.13 419.59L596.21 419.59L596.21 447.20Z M634.90 419.59L634.90 444.85Q634.90 448.66 633.20 451.20Q631.49 453.75 628.88 455.32Q626.28 456.89 623.12 457.56Q619.95 458.23 617.10 458.23L617.10 458.23Q615.19 458.23 613.34 457.90Q611.50 457.56 609.84 457.06Q608.19 456.55 606.82 455.94Q605.45 455.32 604.44 454.70L604.44 454.70L606.46 449.05Q607.46 449.55 608.72 449.97Q609.98 450.39 611.27 450.73Q612.56 451.06 613.82 451.26Q615.08 451.46 616.14 451.46L616.14 451.46Q617.26 451.46 618.75 451.09Q620.23 450.73 621.55 450.06Q622.86 449.38 623.79 448.40Q624.71 447.42 624.71 446.14L624.71 446.14L624.71 445.02Q623.26 446.14 621.24 446.86Q619.22 447.59 617.21 447.59L617.21 447.59Q613.96 447.59 610.88 446.64Q607.80 445.69 605.42 443.92Q603.04 442.16 601.61 439.61Q600.18 437.06 600.18 433.87L600.18 433.87Q600.18 430.34 601.70 427.60Q603.21 424.86 605.56 422.95Q607.91 421.05 610.80 420.07Q613.68 419.09 616.37 419.09L616.37 419.09Q617.38 419.09 618.55 419.28Q619.73 419.48 620.88 419.87Q622.02 420.26 623.06 420.77Q624.10 421.27 624.77 421.94L624.77 421.94L624.77 419.59L634.90 419.59ZM624.77 437.85L624.77 429.45Q623.48 428.38 621.63 427.71Q619.78 427.04 617.82 427.04L617.82 427.04Q616.09 427.04 614.69 427.57Q613.29 428.10 612.31 428.97Q611.33 429.84 610.80 431.02Q610.26 432.19 610.26 433.48L610.26 433.48Q610.26 434.82 610.80 436.08Q611.33 437.34 612.31 438.30Q613.29 439.25 614.69 439.84Q616.09 440.42 617.82 440.42L617.82 440.42Q619.84 440.42 621.66 439.70Q623.48 438.97 624.77 437.85L624.77 437.85Z M672.54 447.20L662.51 447.20L662.51 430.18Q662.51 429.50 662.37 428.83Q662.23 428.16 661.78 427.66Q661.34 427.15 660.52 426.82Q659.71 426.48 658.37 426.48L658.37 426.48Q656.41 426.48 654.31 427.52Q652.21 428.55 650.53 429.78L650.53 429.78L650.53 447.20L640.45 447.20L640.45 405.65L650.53 405.65L650.53 422.28Q652.15 420.94 654.28 420.04Q656.41 419.14 659.15 419.14L659.15 419.14Q662.12 419.14 664.58 419.90Q667.05 420.66 668.81 422Q670.58 423.34 671.56 425.22Q672.54 427.10 672.54 429.28L672.54 429.28L672.54 447.20Z M704.18 442.50L704.18 442.50Q703.17 443.50 701.77 444.37Q700.37 445.24 698.91 445.88Q697.46 446.53 695.97 446.86Q694.49 447.20 693.31 447.20L693.31 447.20Q691.41 447.20 689.53 446.75Q687.66 446.30 685.81 445.18L685.81 445.18Q684.74 444.51 683.82 443.53Q682.90 442.55 682.22 441.38Q681.55 440.20 681.19 438.97Q680.82 437.74 680.82 436.56L680.82 436.56L680.82 426.31L676.12 426.31L676.12 419.59L680.82 419.59L680.82 414.38L690.85 410.86L690.85 419.59L702.16 419.59L702.16 426.31L690.85 426.31L690.85 435.27Q690.85 436.34 691.24 437.12Q691.63 437.90 692.25 438.35L692.25 438.35Q692.98 438.91 694.82 438.91L694.82 438.91Q695.10 438.91 695.83 438.77Q696.56 438.63 697.51 438.30Q698.46 437.96 699.50 437.43Q700.54 436.90 701.43 436.11L701.43 436.11L704.18 442.50Z  M751.66 406.66L750.60 414.38Q748.98 413.60 747.83 413.60Q746.68 413.60 746.06 413.60L746.06 413.60Q744.16 413.60 743.12 414.58Q742.09 415.56 742.09 417.41L742.09 417.41L742.09 419.59L750.21 419.59L750.21 426.31L742.09 426.31L742.09 447.20L732.12 447.20L732.12 426.31L727.98 426.31L727.98 419.59L732.12 419.59L732.12 416.12Q732.12 413.71 733.49 411.28Q734.86 408.84 737.10 407.44L737.10 407.44Q738.95 406.32 740.80 405.87Q742.65 405.42 744.61 405.42L744.61 405.42Q745.95 405.42 747.83 405.73Q749.70 406.04 751.66 406.66L751.66 406.66Z M789.46 433.48L789.46 433.48Q789.46 437.29 788.01 440.00Q786.55 442.72 784.09 444.46Q781.62 446.19 778.35 447.00Q775.07 447.82 771.43 447.82L771.43 447.82Q767.90 447.82 764.60 446.98Q761.30 446.14 758.78 444.37Q756.26 442.61 754.74 439.89Q753.23 437.18 753.23 433.48L753.23 433.48Q753.23 429.62 754.74 426.87Q756.26 424.13 758.78 422.36Q761.30 420.60 764.60 419.76Q767.90 418.92 771.43 418.92L771.43 418.92Q774.96 418.92 778.24 419.79Q781.51 420.66 784.00 422.48Q786.50 424.30 787.98 427.04Q789.46 429.78 789.46 433.48ZM779.72 433.42L779.72 433.42Q779.72 432.08 779.16 430.85Q778.60 429.62 777.54 428.72Q776.47 427.82 774.93 427.29Q773.39 426.76 771.43 426.76L771.43 426.76Q769.47 426.76 767.93 427.29Q766.39 427.82 765.33 428.72Q764.26 429.62 763.70 430.82Q763.14 432.02 763.14 433.42L763.14 433.42Q763.14 434.71 763.70 435.86Q764.26 437.01 765.33 437.90Q766.39 438.80 767.93 439.30Q769.47 439.81 771.43 439.81L771.43 439.81Q773.39 439.81 774.93 439.30Q776.47 438.80 777.54 437.93Q778.60 437.06 779.16 435.92Q779.72 434.77 779.72 433.42Z M816.96 419.65L816.68 428.50L815.84 428.50Q815.39 427.88 814.13 427.40Q812.87 426.93 811.75 426.93L811.75 426.93Q810.69 426.93 809.62 427.32Q808.56 427.71 807.64 428.33Q806.71 428.94 805.90 429.76Q805.09 430.57 804.53 431.41L804.53 431.41L804.53 447.20L794.50 447.20L794.50 419.59L804.53 419.59L804.53 422.78Q805.14 422.22 805.98 421.55Q806.82 420.88 807.86 420.32Q808.90 419.76 810.07 419.40Q811.25 419.03 812.54 419.03L812.54 419.03Q813.88 419.03 815.06 419.20Q816.23 419.37 816.96 419.65L816.96 419.65Z M873.52 421.22L862.15 447.20L855.15 447.20L847.31 431.13Q845.46 435.16 843.53 439.16Q841.60 443.17 839.75 447.20L839.75 447.20L832.86 447.20L820.77 421.22L820.77 419.59L829.78 419.59L836.39 433.87Q838.24 430.34 840.17 426.73Q842.10 423.12 844.01 419.59L844.01 419.59L850.73 419.59L858.29 434.49Q859.91 430.79 861.45 427.04Q862.99 423.29 864.62 419.59L864.62 419.59L873.52 419.59L873.52 421.22Z M913.11 440.48L913.11 447.20Q912.72 447.26 912.16 447.31L912.16 447.31Q911.71 447.37 911.10 447.37Q910.48 447.37 909.75 447.37L909.75 447.37Q908.80 447.37 907.74 447.28Q906.67 447.20 905.64 446.95Q904.60 446.70 903.65 446.22Q902.70 445.74 901.97 445.02L901.97 445.02Q899.95 446.53 897.32 447.09Q894.69 447.65 892.22 447.65L892.22 447.65Q889.54 447.65 886.79 447.17Q884.05 446.70 881.81 445.58Q879.57 444.46 878.14 442.61Q876.71 440.76 876.71 438.07L876.71 438.07Q876.71 435.16 878.08 433.26Q879.46 431.35 881.67 430.29Q883.88 429.22 886.68 428.80Q889.48 428.38 892.34 428.38L892.34 428.38Q893.12 428.38 894.07 428.44Q895.02 428.50 895.98 428.58Q896.93 428.66 897.82 428.83Q898.72 429 899.39 429.17L899.39 429.17Q899.50 429.22 899.73 429.22L899.73 429.22Q899.73 428.50 899.53 427.57Q899.34 426.65 898.55 426.26L898.55 426.26Q897.32 425.64 895.84 425.36Q894.35 425.08 892.62 425.08L892.62 425.08Q891.44 425.08 889.98 425.30Q888.53 425.53 887.02 425.92Q885.50 426.31 884.02 426.76Q882.54 427.21 881.25 427.66L881.25 427.66L879.96 422Q880.80 421.50 882.31 420.96Q883.82 420.43 885.64 419.98Q887.46 419.54 889.40 419.26Q891.33 418.98 892.95 418.98L892.95 418.98Q894.07 418.98 895.53 419.06Q896.98 419.14 898.55 419.37Q900.12 419.59 901.66 420.01Q903.20 420.43 904.54 421.16L904.54 421.16Q907.57 422.84 908.63 424.72Q909.70 426.59 909.70 429.34L909.70 429.34L909.70 438.02Q909.70 439.64 910.34 440.34Q910.98 441.04 913.11 440.48L913.11 440.48ZM899.78 439.75L899.78 439.25Q899.78 439.14 899.76 439.00Q899.73 438.86 899.73 438.69L899.73 438.69L899.73 434.94Q898.22 434.77 896.45 434.54Q894.69 434.32 893.12 434.32L893.12 434.32Q889.70 434.32 888.16 435.36Q886.62 436.39 886.62 437.85L886.62 437.85Q886.62 439.36 888.05 440.26Q889.48 441.15 892.50 441.15L892.50 441.15Q895.08 441.15 896.84 440.79Q898.61 440.42 899.78 439.75L899.78 439.75Z M939.82 419.65L939.54 428.50L938.70 428.50Q938.26 427.88 937.00 427.40Q935.74 426.93 934.62 426.93L934.62 426.93Q933.55 426.93 932.49 427.32Q931.42 427.71 930.50 428.33Q929.58 428.94 928.76 429.76Q927.95 430.57 927.39 431.41L927.39 431.41L927.39 447.20L917.37 447.20L917.37 419.59L927.39 419.59L927.39 422.78Q928.01 422.22 928.85 421.55Q929.69 420.88 930.72 420.32Q931.76 419.76 932.94 419.40Q934.11 419.03 935.40 419.03L935.40 419.03Q936.74 419.03 937.92 419.20Q939.10 419.37 939.82 419.65L939.82 419.65Z M978.52 447.20L968.55 447.20L968.55 444.90Q967.10 446.02 965.02 446.81Q962.95 447.59 960.82 447.59L960.82 447.59Q957.58 447.59 954.44 446.70Q951.30 445.80 948.81 444.04Q946.32 442.27 944.78 439.61Q943.24 436.95 943.24 433.48L943.24 433.48Q943.24 429.56 944.64 426.82Q946.04 424.07 948.45 422.36Q950.86 420.66 953.96 419.87Q957.07 419.09 960.54 419.09L960.54 419.09Q962.50 419.09 964.55 419.62Q966.59 420.15 968.38 421.22L968.38 421.22L968.38 405.65L978.52 405.65L978.52 447.20ZM968.38 437.18L968.38 429.11Q967.10 428.05 965.25 427.38Q963.40 426.70 961.44 426.70L961.44 426.70Q959.70 426.70 958.22 427.21Q956.74 427.71 955.64 428.58Q954.55 429.45 953.94 430.62Q953.32 431.80 953.32 433.14L953.32 433.14Q953.32 434.49 953.94 435.66Q954.55 436.84 955.64 437.74Q956.74 438.63 958.22 439.16Q959.70 439.70 961.44 439.70L961.44 439.70Q963.46 439.70 965.28 439.00Q967.10 438.30 968.38 437.18L968.38 437.18Z M1017.78 435.61L993.36 435.61Q993.98 437.62 996.13 438.97Q998.29 440.31 1001.31 440.31L1001.31 440.31Q1004.45 440.31 1007.22 439.89Q1009.99 439.47 1012.51 438.13L1012.51 438.13L1015.54 443.90Q1013.13 445.69 1009.26 446.72Q1005.40 447.76 1000.98 447.76L1000.98 447.76Q997.28 447.76 994.00 446.92Q990.73 446.08 988.24 444.32Q985.74 442.55 984.32 439.86Q982.89 437.18 982.89 433.48L982.89 433.48Q982.89 429.84 984.23 427.12Q985.58 424.41 987.98 422.59Q990.39 420.77 993.64 419.87Q996.89 418.98 1000.70 418.98L1000.70 418.98Q1008.87 418.98 1013.38 423.15Q1017.89 427.32 1017.78 435.61L1017.78 435.61ZM993.92 430.01L1007.70 430.01Q1007.58 429.39 1007.28 428.64Q1006.97 427.88 1006.18 427.24Q1005.40 426.59 1004.08 426.14Q1002.77 425.70 1000.70 425.70L1000.70 425.70Q998.23 425.70 996.50 426.87Q994.76 428.05 993.92 430.01L993.92 430.01Z M1044.15 419.65L1043.87 428.50L1043.03 428.50Q1042.58 427.88 1041.32 427.40Q1040.06 426.93 1038.94 426.93L1038.94 426.93Q1037.88 426.93 1036.82 427.32Q1035.75 427.71 1034.83 428.33Q1033.90 428.94 1033.09 429.76Q1032.28 430.57 1031.72 431.41L1031.72 431.41L1031.72 447.20L1021.70 447.20L1021.70 419.59L1031.72 419.59L1031.72 422.78Q1032.34 422.22 1033.18 421.55Q1034.02 420.88 1035.05 420.32Q1036.09 419.76 1037.26 419.40Q1038.44 419.03 1039.73 419.03L1039.73 419.03Q1041.07 419.03 1042.25 419.20Q1043.42 419.37 1044.15 419.65L1044.15 419.65Z M1080.78 438.52L1080.78 438.52Q1080.78 440.59 1079.96 442.08Q1079.15 443.56 1077.78 444.57Q1076.41 445.58 1074.64 446.19Q1072.88 446.81 1071.03 447.12Q1069.18 447.42 1067.36 447.54Q1065.54 447.65 1064.03 447.65L1064.03 447.65Q1061.74 447.65 1059.72 447.40Q1057.70 447.14 1055.77 446.64Q1053.84 446.14 1051.88 445.32Q1049.92 444.51 1047.68 443.39L1047.68 443.39L1050.70 437.96Q1053.84 439.58 1057.23 440.42Q1060.62 441.26 1064.03 441.26L1064.03 441.26Q1064.93 441.26 1066.02 441.15Q1067.11 441.04 1068.09 440.79Q1069.07 440.54 1069.74 440.12Q1070.42 439.70 1070.42 439.14L1070.42 439.14Q1070.42 438.58 1069.63 438.21Q1068.85 437.85 1067.81 437.68Q1066.78 437.51 1065.80 437.46Q1064.82 437.40 1064.42 437.40L1064.42 437.40Q1063.08 437.40 1061.32 437.34Q1059.55 437.29 1057.65 437.01Q1055.74 436.73 1053.95 436.20Q1052.16 435.66 1050.70 434.68Q1049.25 433.70 1048.38 432.25Q1047.51 430.79 1047.51 428.72L1047.51 428.72Q1047.51 425.64 1049.22 423.74Q1050.93 421.83 1053.45 420.80Q1055.97 419.76 1058.91 419.42Q1061.85 419.09 1064.37 419.09L1064.37 419.09Q1066.89 419.09 1068.93 419.31Q1070.98 419.54 1072.74 420.01Q1074.50 420.49 1076.07 421.24Q1077.64 422 1079.26 423.12L1079.26 423.12L1076.07 428.55Q1073.27 427.10 1070.61 426.26Q1067.95 425.42 1064.37 425.42L1064.37 425.42Q1063.75 425.42 1062.58 425.53Q1061.40 425.64 1060.22 425.92Q1059.05 426.20 1058.18 426.68Q1057.31 427.15 1057.31 427.82L1057.31 427.82Q1057.31 428.44 1058.26 428.80Q1059.22 429.17 1060.45 429.39Q1061.68 429.62 1062.83 429.67Q1063.98 429.73 1064.42 429.73L1064.42 429.73Q1066.44 429.73 1069.24 429.98Q1072.04 430.23 1074.62 431.13Q1077.19 432.02 1078.98 433.76Q1080.78 435.50 1080.78 438.52Z M1095.56 444.62L1095.56 444.62Q1095.56 446.47 1094.72 448.38Q1093.88 450.28 1092.51 451.96Q1091.14 453.64 1089.37 454.96Q1087.61 456.27 1085.76 456.94L1085.76 456.94L1083.69 452.46Q1084.19 452.18 1084.86 451.62Q1085.54 451.06 1086.24 450.39Q1086.94 449.72 1087.55 449.05Q1088.17 448.38 1088.45 447.87L1088.45 447.87L1088.17 447.87Q1087.16 447.87 1086.43 447.45Q1085.70 447.03 1085.23 446.36Q1084.75 445.69 1084.56 444.90Q1084.36 444.12 1084.36 443.39L1084.36 443.39Q1084.36 442.33 1084.89 441.46Q1085.42 440.59 1086.24 440.03Q1087.05 439.47 1088.00 439.16Q1088.95 438.86 1089.85 438.86L1089.85 438.86Q1092.37 438.86 1093.96 440.45Q1095.56 442.05 1095.56 444.62Z" fill="#FFFFFF"/>
  <path d="M114.78 497.32L114.78 497.32Q114.78 499.39 113.96 500.88Q113.15 502.36 111.78 503.37Q110.41 504.38 108.64 504.99Q106.88 505.61 105.03 505.92Q103.18 506.22 101.36 506.34Q99.54 506.45 98.03 506.45L98.03 506.45Q95.74 506.45 93.72 506.20Q91.70 505.94 89.77 505.44Q87.84 504.94 85.88 504.12Q83.92 503.31 81.68 502.19L81.68 502.19L84.70 496.76Q87.84 498.38 91.23 499.22Q94.62 500.06 98.03 500.06L98.03 500.06Q98.93 500.06 100.02 499.95Q101.11 499.84 102.09 499.59Q103.07 499.34 103.74 498.92Q104.42 498.50 104.42 497.94L104.42 497.94Q104.42 497.38 103.63 497.01Q102.85 496.65 101.81 496.48Q100.78 496.31 99.80 496.26Q98.82 496.20 98.42 496.20L98.42 496.20Q97.08 496.20 95.32 496.14Q93.55 496.09 91.65 495.81Q89.74 495.53 87.95 495.00Q86.16 494.46 84.70 493.48Q83.25 492.50 82.38 491.05Q81.51 489.59 81.51 487.52L81.51 487.52Q81.51 484.44 83.22 482.54Q84.93 480.63 87.45 479.60Q89.97 478.56 92.91 478.22Q95.85 477.89 98.37 477.89L98.37 477.89Q100.89 477.89 102.93 478.11Q104.98 478.34 106.74 478.81Q108.50 479.29 110.07 480.04Q111.64 480.80 113.26 481.92L113.26 481.92L110.07 487.35Q107.27 485.90 104.61 485.06Q101.95 484.22 98.37 484.22L98.37 484.22Q97.75 484.22 96.58 484.33Q95.40 484.44 94.22 484.72Q93.05 485 92.18 485.48Q91.31 485.95 91.31 486.62L91.31 486.62Q91.31 487.24 92.26 487.60Q93.22 487.97 94.45 488.19Q95.68 488.42 96.83 488.47Q97.98 488.53 98.42 488.53L98.42 488.53Q100.44 488.53 103.24 488.78Q106.04 489.03 108.62 489.93Q111.19 490.82 112.98 492.56Q114.78 494.30 114.78 497.32Z M145.63 501.30L145.63 501.30Q144.62 502.30 143.22 503.17Q141.82 504.04 140.37 504.68Q138.91 505.33 137.43 505.66Q135.94 506 134.77 506L134.77 506Q132.86 506 130.99 505.55Q129.11 505.10 127.26 503.98L127.26 503.98Q126.20 503.31 125.28 502.33Q124.35 501.35 123.68 500.18Q123.01 499 122.64 497.77Q122.28 496.54 122.28 495.36L122.28 495.36L122.28 485.11L117.58 485.11L117.58 478.39L122.28 478.39L122.28 473.18L132.30 469.66L132.30 478.39L143.62 478.39L143.62 485.11L132.30 485.11L132.30 494.07Q132.30 495.14 132.70 495.92Q133.09 496.70 133.70 497.15L133.70 497.15Q134.43 497.71 136.28 497.71L136.28 497.71Q136.56 497.71 137.29 497.57Q138.02 497.43 138.97 497.10Q139.92 496.76 140.96 496.23Q141.99 495.70 142.89 494.91L142.89 494.91L145.63 501.30Z M172.34 478.45L172.06 487.30L171.22 487.30Q170.78 486.68 169.52 486.20Q168.26 485.73 167.14 485.73L167.14 485.73Q166.07 485.73 165.01 486.12Q163.94 486.51 163.02 487.13Q162.10 487.74 161.28 488.56Q160.47 489.37 159.91 490.21L159.91 490.21L159.91 506L149.89 506L149.89 478.39L159.91 478.39L159.91 481.58Q160.53 481.02 161.37 480.35Q162.21 479.68 163.24 479.12Q164.28 478.56 165.46 478.20Q166.63 477.83 167.92 477.83L167.92 477.83Q169.26 477.83 170.44 478Q171.62 478.17 172.34 478.45L172.34 478.45Z M212.44 492.28L212.44 492.28Q212.44 496.09 210.98 498.80Q209.53 501.52 207.06 503.26Q204.60 504.99 201.32 505.80Q198.05 506.62 194.41 506.62L194.41 506.62Q190.88 506.62 187.58 505.78Q184.27 504.94 181.75 503.17Q179.23 501.41 177.72 498.69Q176.21 495.98 176.21 492.28L176.21 492.28Q176.21 488.42 177.72 485.67Q179.23 482.93 181.75 481.16Q184.27 479.40 187.58 478.56Q190.88 477.72 194.41 477.72L194.41 477.72Q197.94 477.72 201.21 478.59Q204.49 479.46 206.98 481.28Q209.47 483.10 210.96 485.84Q212.44 488.58 212.44 492.28ZM202.70 492.22L202.70 492.22Q202.70 490.88 202.14 489.65Q201.58 488.42 200.51 487.52Q199.45 486.62 197.91 486.09Q196.37 485.56 194.41 485.56L194.41 485.56Q192.45 485.56 190.91 486.09Q189.37 486.62 188.30 487.52Q187.24 488.42 186.68 489.62Q186.12 490.82 186.12 492.22L186.12 492.22Q186.12 493.51 186.68 494.66Q187.24 495.81 188.30 496.70Q189.37 497.60 190.91 498.10Q192.45 498.61 194.41 498.61L194.41 498.61Q196.37 498.61 197.91 498.10Q199.45 497.60 200.51 496.73Q201.58 495.86 202.14 494.72Q202.70 493.57 202.70 492.22Z M249.62 506L239.60 506L239.60 488.86Q239.60 488.19 239.46 487.52Q239.32 486.85 238.87 486.34Q238.42 485.84 237.61 485.50Q236.80 485.17 235.46 485.17L235.46 485.17Q233.50 485.17 231.40 486.20Q229.30 487.24 227.62 488.47L227.62 488.47L227.62 506L217.54 506L217.54 478.39L227.62 478.39L227.62 481.02Q229.18 479.74 231.37 478.78Q233.55 477.83 236.24 477.83L236.24 477.83Q239.21 477.83 241.67 478.59Q244.14 479.34 245.90 480.69Q247.66 482.03 248.64 483.91Q249.62 485.78 249.62 487.97L249.62 487.97L249.62 506Z M288.71 478.39L288.71 503.65Q288.71 507.46 287.00 510.00Q285.30 512.55 282.69 514.12Q280.09 515.69 276.92 516.36Q273.76 517.03 270.90 517.03L270.90 517.03Q269 517.03 267.15 516.70Q265.30 516.36 263.65 515.86Q262 515.35 260.63 514.74Q259.26 514.12 258.25 513.50L258.25 513.50L260.26 507.85Q261.27 508.35 262.53 508.77Q263.79 509.19 265.08 509.53Q266.37 509.86 267.63 510.06Q268.89 510.26 269.95 510.26L269.95 510.26Q271.07 510.26 272.56 509.89Q274.04 509.53 275.36 508.86Q276.67 508.18 277.60 507.20Q278.52 506.22 278.52 504.94L278.52 504.94L278.52 503.82Q277.06 504.94 275.05 505.66Q273.03 506.39 271.02 506.39L271.02 506.39Q267.77 506.39 264.69 505.44Q261.61 504.49 259.23 502.72Q256.85 500.96 255.42 498.41Q253.99 495.86 253.99 492.67L253.99 492.67Q253.99 489.14 255.50 486.40Q257.02 483.66 259.37 481.75Q261.72 479.85 264.60 478.87Q267.49 477.89 270.18 477.89L270.18 477.89Q271.18 477.89 272.36 478.08Q273.54 478.28 274.68 478.67Q275.83 479.06 276.87 479.57Q277.90 480.07 278.58 480.74L278.58 480.74L278.58 478.39L288.71 478.39ZM278.58 496.65L278.58 488.25Q277.29 487.18 275.44 486.51Q273.59 485.84 271.63 485.84L271.63 485.84Q269.90 485.84 268.50 486.37Q267.10 486.90 266.12 487.77Q265.14 488.64 264.60 489.82Q264.07 490.99 264.07 492.28L264.07 492.28Q264.07 493.62 264.60 494.88Q265.14 496.14 266.12 497.10Q267.10 498.05 268.50 498.64Q269.90 499.22 271.63 499.22L271.63 499.22Q273.65 499.22 275.47 498.50Q277.29 497.77 278.58 496.65L278.58 496.65Z M327.97 494.41L303.55 494.41Q304.17 496.42 306.32 497.77Q308.48 499.11 311.50 499.11L311.50 499.11Q314.64 499.11 317.41 498.69Q320.18 498.27 322.70 496.93L322.70 496.93L325.73 502.70Q323.32 504.49 319.46 505.52Q315.59 506.56 311.17 506.56L311.17 506.56Q307.47 506.56 304.20 505.72Q300.92 504.88 298.43 503.12Q295.94 501.35 294.51 498.66Q293.08 495.98 293.08 492.28L293.08 492.28Q293.08 488.64 294.42 485.92Q295.77 483.21 298.18 481.39Q300.58 479.57 303.83 478.67Q307.08 477.78 310.89 477.78L310.89 477.78Q319.06 477.78 323.57 481.95Q328.08 486.12 327.97 494.41L327.97 494.41ZM304.11 488.81L317.89 488.81Q317.78 488.19 317.47 487.44Q317.16 486.68 316.38 486.04Q315.59 485.39 314.28 484.94Q312.96 484.50 310.89 484.50L310.89 484.50Q308.42 484.50 306.69 485.67Q304.95 486.85 304.11 488.81L304.11 488.81Z M354.34 478.45L354.06 487.30L353.22 487.30Q352.78 486.68 351.52 486.20Q350.26 485.73 349.14 485.73L349.14 485.73Q348.07 485.73 347.01 486.12Q345.94 486.51 345.02 487.13Q344.10 487.74 343.28 488.56Q342.47 489.37 341.91 490.21L341.91 490.21L341.91 506L331.89 506L331.89 478.39L341.91 478.39L341.91 481.58Q342.53 481.02 343.37 480.35Q344.21 479.68 345.24 479.12Q346.28 478.56 347.46 478.20Q348.63 477.83 349.92 477.83L349.92 477.83Q351.26 477.83 352.44 478Q353.62 478.17 354.34 478.45L354.34 478.45Z  M408.05 501.30L408.05 501.30Q407.04 502.30 405.64 503.17Q404.24 504.04 402.78 504.68Q401.33 505.33 399.84 505.66Q398.36 506 397.18 506L397.18 506Q395.28 506 393.40 505.55Q391.53 505.10 389.68 503.98L389.68 503.98Q388.62 503.31 387.69 502.33Q386.77 501.35 386.10 500.18Q385.42 499 385.06 497.77Q384.70 496.54 384.70 495.36L384.70 495.36L384.70 485.11L379.99 485.11L379.99 478.39L384.70 478.39L384.70 473.18L394.72 469.66L394.72 478.39L406.03 478.39L406.03 485.11L394.72 485.11L394.72 494.07Q394.72 495.14 395.11 495.92Q395.50 496.70 396.12 497.15L396.12 497.15Q396.85 497.71 398.70 497.71L398.70 497.71Q398.98 497.71 399.70 497.57Q400.43 497.43 401.38 497.10Q402.34 496.76 403.37 496.23Q404.41 495.70 405.30 494.91L405.30 494.91L408.05 501.30Z M447.58 492.28L447.58 492.28Q447.58 496.09 446.13 498.80Q444.67 501.52 442.21 503.26Q439.74 504.99 436.47 505.80Q433.19 506.62 429.55 506.62L429.55 506.62Q426.02 506.62 422.72 505.78Q419.42 504.94 416.90 503.17Q414.38 501.41 412.86 498.69Q411.35 495.98 411.35 492.28L411.35 492.28Q411.35 488.42 412.86 485.67Q414.38 482.93 416.90 481.16Q419.42 479.40 422.72 478.56Q426.02 477.72 429.55 477.72L429.55 477.72Q433.08 477.72 436.36 478.59Q439.63 479.46 442.12 481.28Q444.62 483.10 446.10 485.84Q447.58 488.58 447.58 492.28ZM437.84 492.22L437.84 492.22Q437.84 490.88 437.28 489.65Q436.72 488.42 435.66 487.52Q434.59 486.62 433.05 486.09Q431.51 485.56 429.55 485.56L429.55 485.56Q427.59 485.56 426.05 486.09Q424.51 486.62 423.45 487.52Q422.38 488.42 421.82 489.62Q421.26 490.82 421.26 492.22L421.26 492.22Q421.26 493.51 421.82 494.66Q422.38 495.81 423.45 496.70Q424.51 497.60 426.05 498.10Q427.59 498.61 429.55 498.61L429.55 498.61Q431.51 498.61 433.05 498.10Q434.59 497.60 435.66 496.73Q436.72 495.86 437.28 494.72Q437.84 493.57 437.84 492.22Z M486.56 478.39L486.56 503.65Q486.56 507.46 484.85 510.00Q483.14 512.55 480.54 514.12Q477.94 515.69 474.77 516.36Q471.61 517.03 468.75 517.03L468.75 517.03Q466.85 517.03 465.00 516.70Q463.15 516.36 461.50 515.86Q459.85 515.35 458.48 514.74Q457.10 514.12 456.10 513.50L456.10 513.50L458.11 507.85Q459.12 508.35 460.38 508.77Q461.64 509.19 462.93 509.53Q464.22 509.86 465.48 510.06Q466.74 510.26 467.80 510.26L467.80 510.26Q468.92 510.26 470.40 509.89Q471.89 509.53 473.20 508.86Q474.52 508.18 475.44 507.20Q476.37 506.22 476.37 504.94L476.37 504.94L476.37 503.82Q474.91 504.94 472.90 505.66Q470.88 506.39 468.86 506.39L468.86 506.39Q465.62 506.39 462.54 505.44Q459.46 504.49 457.08 502.72Q454.70 500.96 453.27 498.41Q451.84 495.86 451.84 492.67L451.84 492.67Q451.84 489.14 453.35 486.40Q454.86 483.66 457.22 481.75Q459.57 479.85 462.45 478.87Q465.34 477.89 468.02 477.89L468.02 477.89Q469.03 477.89 470.21 478.08Q471.38 478.28 472.53 478.67Q473.68 479.06 474.72 479.57Q475.75 480.07 476.42 480.74L476.42 480.74L476.42 478.39L486.56 478.39ZM476.42 496.65L476.42 488.25Q475.14 487.18 473.29 486.51Q471.44 485.84 469.48 485.84L469.48 485.84Q467.74 485.84 466.34 486.37Q464.94 486.90 463.96 487.77Q462.98 488.64 462.45 489.82Q461.92 490.99 461.92 492.28L461.92 492.28Q461.92 493.62 462.45 494.88Q462.98 496.14 463.96 497.10Q464.94 498.05 466.34 498.64Q467.74 499.22 469.48 499.22L469.48 499.22Q471.50 499.22 473.32 498.50Q475.14 497.77 476.42 496.65L476.42 496.65Z M525.82 494.41L501.40 494.41Q502.02 496.42 504.17 497.77Q506.33 499.11 509.35 499.11L509.35 499.11Q512.49 499.11 515.26 498.69Q518.03 498.27 520.55 496.93L520.55 496.93L523.58 502.70Q521.17 504.49 517.30 505.52Q513.44 506.56 509.02 506.56L509.02 506.56Q505.32 506.56 502.04 505.72Q498.77 504.88 496.28 503.12Q493.78 501.35 492.36 498.66Q490.93 495.98 490.93 492.28L490.93 492.28Q490.93 488.64 492.27 485.92Q493.62 483.21 496.02 481.39Q498.43 479.57 501.68 478.67Q504.93 477.78 508.74 477.78L508.74 477.78Q516.91 477.78 521.42 481.95Q525.93 486.12 525.82 494.41L525.82 494.41ZM501.96 488.81L515.74 488.81Q515.62 488.19 515.32 487.44Q515.01 486.68 514.22 486.04Q513.44 485.39 512.12 484.94Q510.81 484.50 508.74 484.50L508.74 484.50Q506.27 484.50 504.54 485.67Q502.80 486.85 501.96 488.81L501.96 488.81Z M556.22 501.30L556.22 501.30Q555.22 502.30 553.82 503.17Q552.42 504.04 550.96 504.68Q549.50 505.33 548.02 505.66Q546.54 506 545.36 506L545.36 506Q543.46 506 541.58 505.55Q539.70 505.10 537.86 503.98L537.86 503.98Q536.79 503.31 535.87 502.33Q534.94 501.35 534.27 500.18Q533.60 499 533.24 497.77Q532.87 496.54 532.87 495.36L532.87 495.36L532.87 485.11L528.17 485.11L528.17 478.39L532.87 478.39L532.87 473.18L542.90 469.66L542.90 478.39L554.21 478.39L554.21 485.11L542.90 485.11L542.90 494.07Q542.90 495.14 543.29 495.92Q543.68 496.70 544.30 497.15L544.30 497.15Q545.02 497.71 546.87 497.71L546.87 497.71Q547.15 497.71 547.88 497.57Q548.61 497.43 549.56 497.10Q550.51 496.76 551.55 496.23Q552.58 495.70 553.48 494.91L553.48 494.91L556.22 501.30Z M592.62 506L582.60 506L582.60 488.98Q582.60 488.30 582.46 487.63Q582.32 486.96 581.87 486.46Q581.42 485.95 580.61 485.62Q579.80 485.28 578.46 485.28L578.46 485.28Q576.50 485.28 574.40 486.32Q572.30 487.35 570.62 488.58L570.62 488.58L570.62 506L560.54 506L560.54 464.45L570.62 464.45L570.62 481.08Q572.24 479.74 574.37 478.84Q576.50 477.94 579.24 477.94L579.24 477.94Q582.21 477.94 584.67 478.70Q587.14 479.46 588.90 480.80Q590.66 482.14 591.64 484.02Q592.62 485.90 592.62 488.08L592.62 488.08L592.62 506Z M631.54 494.41L607.13 494.41Q607.74 496.42 609.90 497.77Q612.06 499.11 615.08 499.11L615.08 499.11Q618.22 499.11 620.99 498.69Q623.76 498.27 626.28 496.93L626.28 496.93L629.30 502.70Q626.90 504.49 623.03 505.52Q619.17 506.56 614.74 506.56L614.74 506.56Q611.05 506.56 607.77 505.72Q604.50 504.88 602.00 503.12Q599.51 501.35 598.08 498.66Q596.66 495.98 596.66 492.28L596.66 492.28Q596.66 488.64 598.00 485.92Q599.34 483.21 601.75 481.39Q604.16 479.57 607.41 478.67Q610.66 477.78 614.46 477.78L614.46 477.78Q622.64 477.78 627.15 481.95Q631.66 486.12 631.54 494.41L631.54 494.41ZM607.69 488.81L621.46 488.81Q621.35 488.19 621.04 487.44Q620.74 486.68 619.95 486.04Q619.17 485.39 617.85 484.94Q616.54 484.50 614.46 484.50L614.46 484.50Q612.00 484.50 610.26 485.67Q608.53 486.85 607.69 488.81L607.69 488.81Z M657.92 478.45L657.64 487.30L656.80 487.30Q656.35 486.68 655.09 486.20Q653.83 485.73 652.71 485.73L652.71 485.73Q651.65 485.73 650.58 486.12Q649.52 486.51 648.60 487.13Q647.67 487.74 646.86 488.56Q646.05 489.37 645.49 490.21L645.49 490.21L645.49 506L635.46 506L635.46 478.39L645.49 478.39L645.49 481.58Q646.10 481.02 646.94 480.35Q647.78 479.68 648.82 479.12Q649.86 478.56 651.03 478.20Q652.21 477.83 653.50 477.83L653.50 477.83Q654.84 477.83 656.02 478Q657.19 478.17 657.92 478.45L657.92 478.45Z M673.60 501.35L673.60 501.35Q673.60 502.42 673.18 503.37Q672.76 504.32 672.00 505.02Q671.25 505.72 670.24 506.11Q669.23 506.50 668.11 506.50L668.11 506.50Q666.99 506.50 666.01 506.11Q665.03 505.72 664.28 505.02Q663.52 504.32 663.10 503.37Q662.68 502.42 662.68 501.35L662.68 501.35Q662.68 500.29 663.10 499.34Q663.52 498.38 664.28 497.68Q665.03 496.98 666.01 496.59Q666.99 496.20 668.11 496.20L668.11 496.20Q669.23 496.20 670.24 496.59Q671.25 496.98 672.00 497.68Q672.76 498.38 673.18 499.34Q673.60 500.29 673.60 501.35Z" fill="#FFFFFF"/>
  <rect x="80" y="542" width="96" height="1" fill="#03A696"/>
</svg>
